<?xml version="1.0" standalone="no"?>
<!DOCTYPE svg PUBLIC "-//W3C//DTD SVG 20010904//EN"
 "http://www.w3.org/TR/2001/REC-SVG-20010904/DTD/svg10.dtd">
<svg version="1.0" xmlns="http://www.w3.org/2000/svg"
 width="300.000000pt" height="300.000000pt" viewBox="0 0 300.000000 300.000000"
 preserveAspectRatio="xMidYMid meet">
<metadata>
Created by potrace 1.16, written by Peter Selinger 2001-2019
</metadata>
<g transform="translate(0.000000,300.000000) scale(0.100000,-0.100000)"
fill="#FFF" stroke="none">
<path d="M1350 2535 c-8 -2 -49 -9 -90 -15 -290 -47 -595 -227 -759 -448 -380
-513 -193 -1177 418 -1482 77 -38 239 -92 336 -111 107 -21 418 -19 525 4 387
83 683 299 835 612 79 162 90 209 90 405 0 196 -11 243 -90 405 -151 309 -444
526 -825 610 -68 15 -397 30 -440 20z m385 -120 c234 -42 444 -153 602 -318
346 -361 336 -870 -24 -1218 -190 -184 -413 -282 -700 -310 -215 -20 -439 22
-638 120 -280 139 -463 357 -526 627 -18 79 -21 114 -16 216 5 138 22 209 72
315 96 204 248 354 470 464 237 117 493 152 760 104z"/>
<path d="M1100 2242 c-134 -57 -262 -168 -314 -270 -35 -70 -56 -162 -56 -252
1 -141 38 -236 136 -339 72 -77 134 -114 225 -136 108 -25 99 -37 99 138 l0
153 -37 36 c-21 19 -64 54 -95 77 -61 45 -119 123 -138 184 -17 55 -9 153 18
208 27 55 120 149 193 196 64 40 55 42 -31 5z"/>
<path d="M1919 2231 c82 -55 152 -127 185 -192 20 -41 26 -67 26 -118 -1 -114
-44 -193 -145 -270 -33 -25 -77 -62 -97 -82 l-38 -37 0 -151 c0 -172 -8 -161
98 -136 88 21 152 56 213 117 107 107 149 209 149 362 0 162 -49 276 -166 385
-50 47 -100 82 -156 109 -116 56 -144 62 -69 13z"/>
<path d="M1316 1995 c-35 -45 -63 -110 -72 -162 -6 -39 -5 -41 27 -52 56 -19
97 -59 130 -126 32 -65 32 -69 37 -238 3 -129 0 -200 -12 -286 -17 -112 -58
-265 -75 -276 -5 -3 -21 14 -35 37 -14 24 -36 57 -50 73 l-24 30 -169 0 -168
0 -66 33 c-36 18 -94 56 -129 84 l-63 52 24 -44 c38 -69 173 -205 231 -234 65
-32 145 -35 220 -6 l53 19 -34 -29 c-19 -16 -60 -38 -90 -49 l-56 -19 85 -41
c151 -73 215 -85 445 -85 189 0 205 2 289 27 80 25 200 77 219 96 4 4 -16 15
-45 24 -29 9 -69 30 -88 46 l-35 30 53 -19 c72 -28 154 -26 217 4 56 26 166
133 220 213 19 29 35 55 35 58 0 3 -28 -18 -62 -46 -35 -27 -92 -64 -128 -82
l-65 -32 -168 0 c-190 0 -170 8 -235 -92 -15 -24 -32 -43 -38 -43 -13 0 -57
79 -80 142 -9 23 -26 97 -39 163 l-23 120 -1 -241 c-1 -202 -3 -244 -16 -254
-12 -10 -18 -10 -30 0 -13 11 -15 76 -15 471 0 268 -4 468 -10 483 -5 14 -27
34 -49 46 -87 44 -123 115 -97 191 8 24 14 45 12 46 -2 2 -15 -12 -30 -32z"/>
<path d="M641 1822 c-142 -279 -45 -617 213 -742 120 -58 217 -69 339 -39 34
9 37 12 31 37 -9 39 -42 91 -70 108 -12 9 -57 24 -98 34 -103 26 -164 59 -241
131 -114 107 -162 237 -152 417 2 50 3 92 1 92 -2 0 -12 -17 -23 -38z"/>
<path d="M2378 1758 c8 -195 -41 -315 -176 -431 -65 -54 -139 -91 -217 -107
-98 -19 -143 -58 -169 -147 -6 -19 -2 -23 31 -32 123 -31 220 -20 339 39 258
126 357 458 218 733 -14 26 -26 47 -27 47 -1 0 -1 -46 1 -102z"/>
</g>
</svg>
